/* XPM */
static char *_c5d1a4e7f3546caba896237f5fba24e70IQLBqr5vxVrPTM[] = {
/* columns rows colors chars-per-pixel */
"60 60 243 2 ",
"   c #000001",
".  c #01000D",
"X  c #000F07",
"o  c #010115",
"O  c #01011C",
"+  c #000B1C",
"@  c #010224",
"#  c #020C25",
"$  c #01012A",
"%  c #030C2A",
"&  c #090F2B",
"*  c #031224",
"=  c #0B1527",
"-  c #04122D",
";  c #0B142D",
":  c #0D1B2C",
">  c #031926",
",  c #020836",
"<  c #031333",
"1  c #0C1533",
"2  c #011D33",
"3  c #0D1A33",
"4  c #02143B",
"5  c #0D193A",
"6  c #141B34",
"7  c #151D3A",
"8  c #181F3A",
"9  c #131934",
"0  c #101B2D",
"q  c #0B262A",
"w  c #13212E",
"e  c #052336",
"r  c #152333",
"t  c #192435",
"y  c #1B2A35",
"u  c #15223C",
"i  c #1B243D",
"p  c #1C2A3B",
"a  c #162936",
"s  c #1D343D",
"d  c #15333E",
"f  c #212C3E",
"g  c #202739",
"h  c #22343B",
"j  c #1D413F",
"k  c #010143",
"l  c #02004C",
"z  c #01154C",
"x  c #011745",
"c  c #161E45",
"v  c #000357",
"b  c #0A1B53",
"n  c #052847",
"m  c #1C2542",
"M  c #1D2A44",
"N  c #1D264A",
"B  c #1D2B4D",
"V  c #142646",
"C  c #07344C",
"Z  c #1D3342",
"A  c #143A44",
"S  c #1A374C",
"D  c #1A2955",
"F  c #1E3454",
"G  c #022454",
"H  c #212643",
"J  c #232B44",
"K  c #232C4B",
"L  c #282F4C",
"P  c #23264B",
"I  c #233444",
"U  c #233B44",
"Y  c #25324C",
"T  c #2A344D",
"R  c #243C4B",
"E  c #2B3B4D",
"W  c #283746",
"Q  c #252F51",
"!  c #292F53",
"~  c #263352",
"^  c #2B3554",
"/  c #2D3A54",
"(  c #25345B",
")  c #2C365A",
"_  c #2E3B5B",
"`  c #273C51",
"'  c #313755",
"]  c #323B55",
"[  c #31375A",
"{  c #323C5C",
"}  c #383E5D",
"|  c #001362",
" . c #162C60",
".. c #18396F",
"X. c #2B3562",
"o. c #2E3B62",
"O. c #253A68",
"+. c #333E62",
"@. c #383D62",
"#. c #323E6A",
"$. c #303761",
"%. c #323E72",
"&. c #24444B",
"*. c #2C444C",
"=. c #294749",
"-. c #33474E",
";. c #2D4354",
":. c #2D4B54",
">. c #2D425B",
",. c #294857",
"<. c #324355",
"1. c #334B55",
"2. c #33435D",
"3. c #39435D",
"4. c #344A5C",
"5. c #394B5D",
"6. c #394A56",
"7. c #33535D",
"8. c #3A505B",
"9. c #2F4563",
"0. c #354364",
"q. c #394464",
"w. c #354B63",
"e. c #3A4A65",
"r. c #364469",
"t. c #3A456B",
"y. c #364B6A",
"u. c #3C4A6C",
"i. c #365262",
"p. c #3B5264",
"a. c #3D526B",
"s. c #3F5A6D",
"d. c #3C5967",
"f. c #3B4672",
"g. c #3D4B72",
"h. c #394975",
"j. c #3E5173",
"k. c #3F517B",
"l. c #424A65",
"z. c #414D6C",
"x. c #40466B",
"c. c #43526D",
"v. c #43596B",
"b. c #424D73",
"n. c #414E7A",
"m. c #494F79",
"M. c #445274",
"N. c #495474",
"B. c #475975",
"V. c #4B5A75",
"C. c #44527B",
"Z. c #4B557B",
"A. c #4C5A7B",
"S. c #455B7B",
"D. c #525B7C",
"F. c #525A79",
"G. c #505C6C",
"H. c #57627A",
"J. c #68707D",
"K. c #3C5185",
"L. c #445482",
"P. c #4A5782",
"I. c #465A81",
"U. c #4C5A84",
"Y. c #4D5D8A",
"T. c #48578A",
"R. c #515D84",
"E. c #505E8B",
"W. c #4B5A8E",
"Q. c #4E6083",
"!. c #4E608C",
"~. c #546284",
"^. c #5D6B86",
"/. c #54638C",
"(. c #59658C",
"). c #5D6B8C",
"_. c #5C6682",
"`. c #4E6296",
"'. c #546593",
"]. c #596592",
"[. c #576993",
"{. c #5C6B93",
"}. c #56679B",
"|. c #5C6C9A",
" X c #57699B",
".X c #5F7198",
"XX c #5B708D",
"oX c #616C8F",
"OX c #65708E",
"+X c #697488",
"@X c #626D93",
"#X c #616F9A",
"$X c #627195",
"%X c #6B7593",
"&X c #64739D",
"*X c #6C7B9C",
"=X c #66789E",
"-X c #747D9D",
";X c #71798C",
":X c #5C70A6",
">X c #6274A5",
",X c #6977A3",
"<X c #6C7CA4",
"1X c #6474AA",
"2X c #6C7CAB",
"3X c #6479A4",
"4X c #747EA4",
"5X c #707EAC",
"6X c #6C7CB1",
"7X c #6B7DB6",
"8X c #7D869C",
"9X c #77849C",
"0X c #7582A4",
"qX c #7985A4",
"wX c #7483AC",
"eX c #7D8AAC",
"rX c #7887A9",
"tX c #6E83B6",
"yX c #7688B8",
"uX c #7F91BB",
"iX c #7D8EC6",
"pX c #80889B",
"aX c #808BAA",
"sX c #8792AB",
"dX c #818FB3",
"fX c #8393BC",
"gX c #8796B7",
"hX c #969CB4",
"jX c #97A3BA",
"kX c #ADB0BF",
"lX c #8394C2",
"zX c #889ECD",
"xX c #8499D2",
"cX c #9AAACD",
"vX c #95A6C7",
"bX c #94A6D5",
"nX c #9DB2D5",
"mX c #9CB0CB",
"MX c #AEB8CE",
"NX c #9EB3E2",
"BX c #A8BCE1",
"VX c #BDC3D1",
"CX c #AFC5F6",
/* pixels */
"^ -   N.5XgXqXR.M.A.N.Y e.q.K P @ % % ] =XfX5X{.] # 9 {.cXcX6X#X~.J 6 @ ' H.S.p O 3 % @ % o   O .   . % 6 % @ T L K K ! ",
"  p sX^.f.OXqX2XyXrX<X&X&X5X{.C.- 9 +.l.M.M.u.x.q.o z.&X.XY.C.I.@XC.  f.bXcXyXiXq.M.&X}   D lXgX<XjXsX{ o t @ $ x D $.m ",
", _.eXx o.D k V M V ~ { / e.w.0._ ; N.} ~ ^ ^ ^ L # _ t.#.^ 2./ K / ) 1X X4 r.:X~.D.S.] X n.uXwXyX8XjXcXu.  _ >XbXnXNX:X",
"f.M b 0./ 3.t.0.u.t.r.0.0.y.{ @.^ # z.b.g.v.d.e.[ > } 2.{ 2.] 2.@.^ r.P.2.C.L.L.M D.u.M t B %.D h.| k U.M.  W.tXiX,X,X}.",
"o.>Xc.{ { 0.^ _ 2.2.t.g.r.g.g.y.K ^ f { { e.w.2.T o 2.q._ _ 2.^ { ^ _ }.C.u.} g.#.q.t.K * t.}.b.y.A.P.f.) * P.T.O.O.V k.",
"H {.Z.3._ o.) _ _ r.t.r.0.0.t.+.K t.9 ' l.[ } q.3.; l.u.0.+.{ +.r.~ K }.!.r._ +.+.m { T : } E.{ ~ 0.h.b.i L }.I.2.b.g.r.",
"m   |.|.K y.q._ ) { _ ^ _ _ { _ K 0.' D.N.d.a.a.b.c A.M.c.j.u.y.t._ ^  Xg.+.{ / +.L P i w K t.t.].t.f.t.* 0.E.+._ 0.t._ ",
"i p {  Xr.0.r.q.+.0.0._ _ { +.^ [ Y J z.e &.A V 0.m W > q j =.I +.) { &X+.+.q._ t.] 3 9 0 : ( C.~.+.0.} * ^ P.+.+.{ / [ ",
"@ L P.( e.e.f.k.f.0.f.u._ / { ( { t   / #XN.F.).q.  E (.&X3X@Xq.B c J U.t.w.0.^ t.e.# . = 2.t.o.^ _ ^ T u T [.U.o.t.+.[ ",
"0 ^ f.o.w.w.M.h.y.t.r.g.t.t.r.5 E H 1 R.&X$XrXtXM.o _.2XtX7X1X6X#XU.1 [ a.w.0._ e./ L T o z.t.{ o.^ 1.<.r _ A.g.T +.2.^ ",
"i P.N `.w.w.g.t.n.m.0.+.r.n.0.R.q.{ 2.'.+.e.e.0.4.I (.+.>.9.y.C.A.n.5 5 0.w.s.s.e.8 N.e.@ <.0.v.E L ] M o 2.t.K q.T -.^ ",
"* P.b.k.g.u.y.y.g.0.w._ [ t._ |.M.' Z.&Xz._ ) +.w.: Z.r.^ 0.~ 0._ ~ B 9 6 Y ;.R   - t.+.H r J       o % @ T _ #.{ E 1./ ",
"w 3.$.g.t._ +.0.0.Z.t.+.+.+.+._ w./ M.A./ 0.0.0.^ r v.g.t.Y.P.0.w.} +.N o 8 O 1 /.t.] ' i . / sXgX|.t.H # h 4.i.U O f i ",
"8 I M Y.0.P.E.~ t.0.0.+.{ q.L.n.w.J Z.U.( 2.{ t._ E H.^ Y.fXR.~ 0.) B sXqX$   C./.2.3.i # h {.gXoXU.M.^ % t Z *.6.~.<.* ",
"t p ^ f.j.6XA.( 0._ 0.+._ 0.C.y.q.I M.&XN 2._ 0.2.E A.Q u.u.^ r.r.^ } V.x.! . ].Z.P @.} = 1.J x M.<./ Y t # g.dX$XyXg.% ",
"I 5.K B Z..Xr.L.P.t.{ _ { { o.{ u.u / ,X_ f.C.{ ] : ).z.^ _ r.q.[ _ V.b.B q.o b.R.<.<.w.H 3 2.8.:.d $       K _ ~ V / M ",
"/ a.m ^ u.'.P.T.I.+._ +._ +.+.w.e.9 u $XV.I.Y.2.E p F.q.^ { o.{ ^ 0.B.u.+.0.J c ^ J E T 8 1 i o 1 OX0X{.4X).J M L J 8 % ",
"E c.g.w.E ~ 0.0.) _ 0.2.0.0.+.0.e.2.  A.A.U 3.q.` ] N._ 3.w.0.0.w.4.w.0.+.0.^ < +.A.z.T ^ < # ^.vXvXyX2XfXzX'.A.4XoXN.u ",
"p -.w.y.v.s.i.5.e.t.e.u.t.w.q.e.w.E / @.'.e.2.~ - } A.4.,.:.;.F &.>._ 2.{ 0.` Y w.y.e.q.+.  ).zX).z e F , V y.q.u.e.{ Y ",
"u 1 u >.U ,.7._ E ;.;.2.w.w.w.I > 3 q.7 Y ~ Y m O i 3./ 7.v.v.G.V.5.Y 9.4.0.J T E t > 6 7 8 uXh. .A.M.y.u.X.t.y.{ 2.{ ~ ",
"@ H Y / M.e.^ ^ ^ / } / i u 1 0.(.(.j.(.0.J [.@XN.8   A.0X0XwXdXeX].C.M.u.2.f   @.D.N.M.4 F.vXO.Z.0.w./ ~ u.M._ f.A.{ ^ ",
"c.4X$XU.<X1XP./..X#XXXH.i   Y /.3X|.P.R.g.r.b.Z.M.J } D.@XR.U.C.M.u.q.u.q.t.^ 0.[.N.z.A.P oXrXO.q.+.r.r.u.=X/.^ _ u.{ ~ ",
"(.(.A.2._ y.q.t.j.b.b.M.] T ~.+.~ ^ ~ ~ { } _ { { m F.V     -     o     @ O   $ ~ @   . - { T.u.+.0.{ { C.g.[ { { ) ' Y ",
"m - ;.2.h W &.:./ ;.B 4     M < ' -.-.;.A U R e 2 6 @ Y H.oX'.*X8X9X&X(.c.z.A.N.q./ z.<.- O z.u.r.r.0.2._ ) +.u.+./ _ ~ ",
"# f # p g.z.{ s I - y e.F.^.oX@XU.k.K.S.H.M.M.(.N.  _ dXjX*X[.%X9X-X&X{.Q.~.#X@X(.R.).F.[ + A.k.t.r.g.0.0.0.2.f.0._ _ ) ",
"1 o { |.[.[.R.}   A.uXjXvXsXoXR.[.qXsXwX'.U.~.@X5XM.Z.oXl.{ ^ ( %.( _ _ +.o.+.g.r.0.0.E x.^ Y.j.t.t.r.{ q.3.0.0.q.' / ~ ",
"@ 8 |.R.0.f.t.{ 9 U.U.D.$ O Y.tXmXMXMXgXT.3.y.` e.q.u.b.n { 0.t.C.0.r.r.q./ [ +.{ _ <.f q.] C.y.r.u.0.+.2.w.2.w.q._ +.) ",
"% _ /.r.n.g.e.Y J Y.t.x qXnXtXlX/.!.h.K.f.~ { { ] _ z.E.3.e.0.w.2.t.g.@._ y.t.w.i.7.1.u f @ A.A.2.e.u.w.w.a.j.j.M.y.N.^ ",
"@ q.:Xr.L.k.c.h B /.+.>XnXsXh.t.o.K._ f.f.{ 0.w.2.q.q.[ <.7.w.4.w.y.y.w.5.1.&.*.e.3.K % m 1 J 5.:.,.C C C F S S R >.` 5 ",
"p ' A.C.+.r.q.*.H g.t.u.O.O.r.0.r.g.{ f.Y.b.>.4./ q./ o ; q.a.a.w.>.>.;._ U.>X6X&XR.5.E [ ^ O   [ _.;X+X;XOX@X+XF.l.u.o.",
"m q.'.U.K ) <.6.t 0.{ _ #.t.r.w.0.+.{ r.C.+.w.4.{ } ' : &XlXyX&X(.^.3.P '.&X(.j.3._ w.0.0.J O lXfX4XqX8XpX0X0X0X%XU.u.+.",
"~ M.'.t.{ /.B.y 9 @.t._ 0.0.w.e.0.+.0.q.0.0.w.4.{ +.' E _.{ ;.<.+.b.w.F.~.e / _ w.4.e.0.t.L (.tX( F G z z n D D ( >.w.{ ",
"~ 0.U.^ r.u.q.I   0.t.{ ' k.C.4.g.C._ +.0.+.2.2.[ [ { *   u T E ] J % J ;.;.s ; Y 1.7.7.<.z.2Xr.0.T.1XfX0X+.0.3.q.w.0._ ",
"^ Y 5.t.0._ y.<.  } y.+.q.L...< /.C.~ y.+._ ^ _ ;./ { I N.M.} J o ^ u.b.Z.B.N.z.t./ K I w S.[.) r.t.M.A.t.{ ^ _ a.3.{ _ ",
"^ B ] / / <./ E - Y ) t f.N.J.%XC.I.C.0.0.+.+.+.6.} { c.H.U.D.B.M.,X(.(.].{.$X@X/.z.N.Z.  +.I./ 9.0.) c +.0.t.u.6.<._ { ",
"T Y r.2.} <.<.4.L O L z.(.hXkXaXh./.C.>.f.0.{ 5.4.{ T l.B B _ h ).M.u _ Y Z B B J :.0.m.6 ) n.' 0.P.Y.C.M.t.n.u.1.<.{ _ ",
") B 3.4.7.i.7.I = K R.(.^.+X( k 2.~ o.f.g.0.2.w.2.{ ] z.q.g.Y l.q.2.b.q.t.q.q.0.0.3./ ^ Y J g.2.0.2.y.M.w.2.2.{ w./ / { ",
"{ J * ;.a.p.e.[   f.Z.T B n y.M.f.g.0.u.g.) 2.w.;.0.' [ _ K A.{.{ +.0._ g.g.+.0.+.S.e.2.^ H t.{ [ ' ( [ +.+.{ _ 2.2.^ [ ",
"+.u ^ P.C.b.I.~.J t.g.( 3.} x.} { +.+.g.f.b.t._ e.5.J T # } $X+.[ q.0.0.0.0.t.f.0.b.p.<.L 8 C.0.e.e.u.e.q.w.0.+.w.w.{ 0.",
"i 9 /.m.0.0.@.t.^ ^ z.p./ w.U.Y.r.{ t.u.w.S.v.<.6.y } 2.% w.q.E q.0.q.+.+.0.0.y.r.0.e.5.J @ t.2.2 2 S ;.` Q ^ ^ ~ / +./ ",
"8 t A.{ +._ [ { [ 9 J :.:.;.2.w.2.Y E *.:.=.=.<.3.J J u p 5.+.w.0.0.0.f.t.0.r.q.0.~ ;.;.J % o 3.%X9XOXF.V.b.} q.3.3.} M ",
") J U.q.n.t.r.+.{ i   L 2.<./ J ' q.z.M.c T +.u.t.0./ ; l./.M.{ 0.t.r.y.r.0.r.w.g.!.c.e.E o Y D.%XqX5XD.D.R.u.M.c.z.t._ ",
"^ / {.X.t.g.g.w._ J q.m.q.t.q.+._ _ +.' H ! { $.{ ) o.; V.{.T.{ y.g.t.r.0.0.y.t.t.}.eX@XZ 6 N.0.( o.h.a.>.0.0.+.w._ / >.",
"^ J e._ t.t.o.o.^ K e.[ ^ ^ ~ ) _ o.) r.+.{ +._ ) K { 7 5.). X+.t.r.r.+.g.b.0.r._ _ k.r.Y } (.) r.+./ 0.e.2.+._ 0.) { ] ",
">.O / C.^ #.P { J 3.g.^ o.^ ) _ _ 2._ _ ! / 0.{ _ ^ 2.m <.Q.6Xy.0.t._ M.|.t.+.0.C.r.t.q.Y 3.oX^ 0._ 0.w.e._ _ r._ _ +.{ ",
"+.# ^ e.p.4.5.e.p ] u._ 2.w.3.w.9.7.7.4.Y c / 4.w.7.4.s <.y.6XU.~ t.0.g.k.g.g.r.g.t.0.y.` T /._ r.0.0.w.y.+.0.y.w.0.0.+.",
"[ # 9 <.4.7.7.U M = o 4 e C A d &.S e 2 3 e.a.:.1.;.a r V {.bX`.I.C.0.L.].Y.n.r.+.0.0.r./ u D._ y.b.f.f.g.t.y.w.y.w.t.f.",
"5 O T A./.D.V.).' , *XsXqXeXeX:X1XnXmXvXyXtX/.j.v.q.K u   uXxX`.`.!.{.+.t.g.0.0.f.t.t.0.T O T 4.p.u.t.y.e.w.j.w.u.u.f.r.",
"] T R.+.b.} @.#Xq.#.yXMXVXVXBXCXtXeXjXhX'.X.0.L.u.e.u.i   Z.'.[ 4X[.n._ 9.0.g.n.g.r.0._ i %   * I &.*.E U E R ` <.5.q.q.",
"~.] R.T ' ^ @., H.qXD $ v v O.*XX...l l ( t.t.0.w.u.0.u @ I u.e.gX{ t.r.r.t.g.C.t.#.q./ Y O J t.l.N.A.N.3.  T N.A.).$X%X",
"Q m m ^ +.2.@.$ H.H.0.M.m.U.M.k y.C.z.z.0.e.0.{ e.w.^ s O 5.B.0.$.f.t.t.C.k.k.k.k.t._ _ +.  C./.R.R.R.].G.+ N.N.x.t._ o.",
"@.i T ^ K ~.Z.9 ( +.0.t.+.t.U.b.t.0.[ 0.+.+._ t.y.{ ^ p m e./ +.+.y.g.t.f.g.r.t.y.+.^ { E w z.J K m ^ r._ r m.q.q.P.Y.{ ",
"} H *X~.q.A.g.u q.n.{ q.r.0._ r.t.0.+.t.+._ u.t./ 2.' # [ u.g.t.2.0.r.+._ t.t.} _ ^ Q / E f M.[ q.w.t.u.w.w } 0.t.7X/./ ",
"q.m A.D.b.) r.~ L t.n.f.2.0.0.{ +.+.+.+.>.0.q.+.2.2._ & ' y.y.+.) _ ^ _ +.+.b.t.^ U.u.] E i N.^ 5.{ { ^ 2.y } T t.}._ q.",
"T & <.U.( 0.0.~ _ 2.g.b.{ w.0.{ { / P.P.K 0.$.+.<.e.t.3 M <.{ _ +.g.C.'.Y.u.h.g.r.P.S./ f 9 z.^ q.o.q.t.5.s z.q.^ ) 0.{ ",
"} 8 A.C.q.} q.M [ t.k.g.t.w.>.{ { ^ t.C.r.u.u.5.5.t.t.1 2.q.-.u.m.I.:X XC.!.f.C.C.<.6.f O 8 A.} M.+.M.A.-.s N.z.Y ' { 0.",
"3.T A.3.-.} u._ b.M.y.g.u.w.0.r.g.M.y.z.M.M.i.e.a.P.r.. u.u.1.-.2.e.u.2.{ e.q.g.y.w.{ <.y 9 z./ Z._ M.B.6.a e.l.^ 2.2.0.",
"' T F.t.z.] e.y.0.e.q.t.+.r.w.+.0.r.t.0.0.q.e.e././.Y   l.a.4.C.j.>.:.2.q.+.0.0.0.0.t.0.J % +.2.M.w.5.8.6.q } e.2.3.0.+.",
"_ ^ z.t.C.N.u.2.M 2.<.4.4.i.w.e.w.e.r.r.w.d.a.a.g.+.U   ^ u.2.S.'.`.L.g.b.+.+.r.0.+.{ Y J i t.4.2.0.<.<./ # 3.b.w.w.0.2.",
"q.' # i ! ) / m ; 3 6 R ;.E I Y I J 6 u I R U I 6 + & H u m H M L #.q.o.^ ^ ) { ^ K m m ; i N.1.i.i.d.4.^ $ t N.q.w.i.w."
};
