/* XPM */
static char *result[] = {
/* columns rows colors chars-per-pixel */
"50 50 208 2 ",
"   c #483F6B",
".  c #534859",
"X  c #5C525B",
"o  c #4D435E",
"O  c #4B436A",
"+  c #554C6D",
"@  c #534965",
"#  c #5A5267",
"$  c #4F4676",
"%  c #504676",
"&  c #534B73",
"*  c #544B7D",
"=  c #544B7D",
"-  c #5E5572",
";  c #5E557D",
":  c #754569",
">  c #665A65",
",  c #6C4A74",
"<  c #62587B",
"1  c #7A5578",
"2  c #704C6E",
"3  c #7A6C63",
"4  c #796C69",
"5  c #6D637D",
"6  c #67607E",
"7  c #76696A",
"8  c #894C74",
"9  c #924973",
"0  c #87567B",
"q  c #9A567A",
"w  c #8E4D6B",
"e  c #AD4A77",
"r  c #A84E7B",
"t  c #B34C7B",
"y  c #BA4E7F",
"u  c #A55579",
"i  c #B7507F",
"p  c #897A6C",
"a  c #8A7B75",
"s  c #8C6A75",
"d  c #A8657D",
"f  c #9C8E7B",
"g  c #938472",
"h  c #A4937C",
"j  c #AB997D",
"k  c #574D85",
"l  c #584F87",
"z  c #594F89",
"x  c #5A5283",
"c  c #5B518B",
"v  c #5E5492",
"b  c #6D5D8B",
"n  c #655A87",
"m  c #7A5584",
"M  c #755A89",
"N  c #745884",
"B  c #605696",
"V  c #625799",
"C  c #64599C",
"Z  c #695E9A",
"A  c #6B6383",
"S  c #6E6788",
"D  c #716B85",
"F  c #756789",
"G  c #7B7688",
"H  c #6C6392",
"J  c #6C629A",
"K  c #70679D",
"L  c #756A98",
"P  c #7B7591",
"I  c #7F7997",
"U  c #695EA0",
"Y  c #6D63A3",
"T  c #7066A7",
"R  c #736AA4",
"E  c #756CAB",
"W  c #786EAD",
"Q  c #7A71AE",
"!  c #7D77A2",
"~  c #7C73B1",
"^  c #835D85",
"/  c #BF4F81",
"(  c #B85280",
")  c #8C6587",
"_  c #877E87",
"`  c #847E94",
"'  c #80799C",
"]  c #936D8F",
"[  c #B87688",
"{  c #AF6D91",
"}  c #A97794",
"|  c #AC6C8A",
" . c #837CA3",
".. c #847BAA",
"X. c #8A7CA9",
"o. c #917EA8",
"O. c #867CB5",
"+. c #837AB2",
"@. c #BB7CA0",
"#. c #C55285",
"$. c #C95387",
"%. c #C75388",
"&. c #C95488",
"*. c #CA5A8C",
"=. c #CD5F90",
"-. c #C14E82",
";. c #CD6493",
":. c #C96D96",
">. c #D06695",
",. c #D26D9A",
"<. c #C8749A",
"1. c #D4739E",
"2. c #C17B8E",
"3. c #D676A1",
"4. c #D97DA6",
"5. c #DA7FA8",
"6. c #D57AA1",
"7. c #CC7EA3",
"8. c #8D828C",
"9. c #948883",
"0. c #9F9384",
"q. c #8A8698",
"w. c #958C99",
"e. c #98949F",
"r. c #AB9B83",
"t. c #A5998B",
"y. c #A89986",
"u. c #B19F83",
"i. c #B98599",
"p. c #AE8691",
"a. c #BAA789",
"s. c #BDAA8C",
"d. c #B5A488",
"f. c #ADA396",
"g. c #B5A895",
"h. c #BBAC94",
"j. c #B6A996",
"k. c #8B86A2",
"l. c #8C83AD",
"z. c #8983A4",
"x. c #938DAA",
"c. c #938DA5",
"v. c #9692A2",
"b. c #9793AC",
"n. c #9B97A9",
"m. c #8D85B3",
"M. c #8D84BA",
"N. c #9189B5",
"B. c #938BBD",
"V. c #988FBF",
"C. c #9A93B1",
"Z. c #9E97B7",
"A. c #A19DAB",
"S. c #A19BB2",
"D. c #A49CBA",
"F. c #ABAAAE",
"G. c #A7A5AA",
"H. c #B6AEA4",
"J. c #BBB1A4",
"K. c #BBB4AB",
"L. c #ABA6B6",
"P. c #AEADB2",
"I. c #ACA5BC",
"U. c #B1AEB8",
"Y. c #B3B2B6",
"T. c #B8B6B9",
"R. c #BBB9BE",
"E. c #C18093",
"W. c #C1AE8D",
"Q. c #C7B698",
"!. c #DC82AB",
"~. c #D886AA",
"^. c #D595A5",
"/. c #D292AE",
"(. c #DC8EB0",
"). c #C98CA9",
"_. c #E799BC",
"`. c #E99CBE",
"'. c #E494B8",
"]. c #E08CB2",
"[. c #C5B9A5",
"{. c #D0A4B7",
"}. c #D3C2A5",
"|. c #D3C4AB",
" X c #C9C2B6",
".X c #DBCCB3",
"XX c #DFD0B5",
"oX c #968EC0",
"OX c #988FC1",
"+X c #9B92C3",
"@X c #9790C0",
"#X c #A29AC3",
"$X c #BCBBC1",
"%X c #B8B4C0",
"&X c #B0A7CE",
"*X c #C0BEC2",
"=X c #C2C1C5",
"-X c #CDCDD2",
";X c #D0CFD1",
":X c #D2D2D5",
">X c #D9D9DC",
",X c #DBDCE1",
"<X c #E6E7E9",
"1X c #EDEEF1",
"2X c #F3F4F6",
"3X c #F5F6F8",
"4X c #F8F9FB",
"5X c None",
/* pixels */
"5X5X5X5X5X5X5X5X5X5X5X5X5X5X5X5X5X5X:X<X,X,X5X5X5X5X5X5X5X5X5X5X5X5X5X5X5X5X5X5X5X5X5X5X5X5X5X5X5X5X",
"5X5X5X5X5X5X5X5X5X5X5X5X5X5X5X5X5X5X:X3X4X2X>X5X5X5X5X5X5X5X5X5X5X5X5X5X5X5X5X5X5X5X5X5X5X5X5X5X5X5X",
"5X5X5X5X5X5X5X5X5X5X5X5X5X5X5X5X5X5X5X:X<X3X3X-X5X5X5X5X5X5X5X5X5X5X5X5X5X5X5X5X5X5X5X5X5X5X5X5X5X5X",
"5X5X5X5X5X5X5X5X5X5X5X5X5X5X5X5X5X5X5X5X5X-X:X-XP.5X5X5X5X5X5X5X5X5X5X5X5X5X5X5X5X5X5X5X5X5X5X5X5X5X",
"5X5X5X5X5X5X5X5X5X5X5X5X5X5X5X5X5X5X5X5X5X5X5X5X5X=X$X5X5X5X5X5X5X5X5X5X5X5X5X5X5X5X5X5X5X5X5X5X5X5X",
"5X5X5X5X5X5X5X5X5X5X5X5X5X5X5X5X5X5X5X5X5X5X5X5X5X5X5XF.5X5X5X5X5X5X5X5X5X5X5X5X5X5X5X5X5X5X5X5X5X5X",
"5X5X5X5X5X5X5X5X5X5X5X5X5X5X5X5X5X5X5X5X5X5X5X5X5X5X5X5XF.5X5X5X5X5X5X5X5X5X5X5X5X5X5X5X5X5X5X5X5X5X",
"5X5X5X5X5X5X5X5X5X5X5X5X5X5X5X5X5X5X5X5X5X5XA.5X5X5X5X5X5XP.5X5X5X5X5X5X5X5X5X5X5X5X5X5X5X5X5X5X5X5X",
"5X5X5X5X5X5X5X5X5X5X5X5X5X5X5X5X5X5X5X5X5X5XU.I.U.5X5X5X5X5XY.5X5X5X5X5X5X5X5X5X5X5X5X5X5X5X5X5X5X5X",
"5X5X5X5X5X5X5X5X5X5X5X5X5X5X5X5X5X5X5X5X5X5X5XI.&XI.5X5X5X5X5XP.5X5X5X5X5X5X5X5X5X5X5X5X5X5X5X5X5X5X",
"5X>X1X2X3X2X2X,X$XR.=X$X=X=X5X5X5X5X5X5X5X5X5X5XD.&XI.L.5X5X5X5XF.5X5X5X5X5X5X5X5X5X5X5X5X5X5X5X5X5X",
"T.1X2X3X2X1X,X5X5X5X5X5X5X=XR.U.Y.Y.Y.=X5X5X5X5X5XV.#XV.C.5X5X5X5XR.5X5X5X5X5X5X5X5X5X5X5X5X5X5X5X5X",
"5X5X5X5X5X5X5X5X5X5X5X5X5X5X5X5X5X5X5XT.F.P.$X5X5Xx.@X+XB.b.5X5Xv.G.5X5X5X5X5X5X5X5X5X5X5X5X5X5X5X5X",
"5X5X5X5X5X5X5X5X5XU.L.I.I.I.S.x.b.C.C.Z.n.v.q.w.P.G. .@XV.B.b.A.z.v.G L 5X5X5X5X5X5X5X5X5X5X5X5X5X5X",
"5X5X5X5X5X5X5X5X5X5XL.S.Z.Z.#X#X+X#X+X+XB.B.M.z.l.b.q.c.N.B.B.F N.! D H P 5X5X5X5X5X5X5X5X5X5X5X5X5X",
"5X5X5X5X5X5X5X5X5X5X5X5X5X5X5XS.c.k.l.l.m.B.oXB.@XV.m.z.q.z.N.B.+XM.H - I S. .k.5X5X5X5X5X5X5X5X5X5X",
"5X5X5X5X5X5X5X5X5X5X5X5X5X5X5X5X5X5X5XA.` S  .l.OX+X+X@XN.q.` m.OXoXO.# H b L M 5X5X5X5X5X5X5X5X5X5X",
"5X5X5X5X5X5X5X5X5X5X5X5X5X5X5X5XA.x.l.x.N.B.B.+XOXm.X.o.o.m.z.D  .oXV.m. .q 6.~./.{.5X5X5X5X5X5X5X5X",
"5X5X5X5X5X5X5X5X5X5X5X5X5Xw.L  .B.+X+X+XOXV.V. .) { <.7.).@.] ! ..oXOXOXM.8 ,.!.'._.~.).5X5X5X5X5X5X",
"5X5X5X5X5X5X5X5X5X5X5X5X5X5XD z.+X+XB.OX+XB.P q 1.5.!.`.`.`.].} o.OXB.OXB.M u 3.!.!.!.~.i.5X5X5X5X5X",
"5X5X5X5X5X5X5X5X5X5X5X5X5X5XH O.B.B.oXB.oXX.q 3.5.5.!.'.`.`._.!.) O.B.B.M.W 1 y >.1.!.4.4.p.5X5X5X5X",
"5X5X5X5X5X5X5X5X5X5X5X5X5X5X` n X.OXM.oXB.^ ;.!.5.5.4.!.!.].!.!.{ ' M.M.O.W T 1 y *.;.1.3.:.5X5X5X5X",
"5X5X5X5X5X5X5X5X5X5X5X5X5X5XI O.oXoXoXoXM.8 >.5.5.5.5.5.5.5.5.!.<.M ~ +.Q W Q H : t #.&.&.*.| 5X5X5X",
"5X5X5X5X5X5X5X5X5X5X5X5X5XL ~ O.O.~ O.M.Q 9 *.3.5.5.5.5.5.5.5.5.:.m ~ Q W T 5 ] p.E.d r -.&.u 5X5X5X",
"5X5X5X5X5X5X5X5X5X5X5Xw.n E ~ W ~ W O.+.T 9 $.=.3.4.5.5.5.5.4.,.y N W ~ E 2 [ ^.^.^.E.s } #.u 5X5X5X",
"5X5X5X5X5X5X5X5X5X5X5X5XH E ~ E ~ ~ ~ W E ^ -.#.&.;.,.,.,.>.=.%.w Z W ~ b w.p.[ i.[ w 8.>X) : 5X5X5X",
"5X5X5X5X5X5X5X5X5X5X5X' E W E Q W ~ W W W M ( #.%.%.%.%.$.$.%.e , W W W P 1X$X0 0 > & x v._ * < 5X5X",
"5X5X5X5X5X5X5X5X5X5Xc.E Q E ~ E W W ~ W W ~ m t %.%.%.%.%.$.e , R E W W ` ,X%Xc z z c c = & z x 5X5X",
"5X5X5X5X5X5X5X5X5X5XH K T W T W W W ~ ~ W W W m 9 t -./ t 9 n T E W E W K v.A.c v c c c c c l & q.5X",
"5X5X5X5X5X5X5X5X5XD b.5XH v z W W W W ~ W W +.W T M m m b T E U T E Y T R B x c B c c c c c c n 5X5X",
"5X5X5X5X5X5X5X5X5X5X5X5X_ F v Y W Y W ~ E E W W +.Q W W W E Z C V v V U Z C V B B v c c c c c l S 5X",
"5X5X5X5X5X5X5X5X5X5X5X5X5Xb V U U U U W U U Y E Q Q W T Y Z V A 9.8.x v V C V B v v c c c z + 4 G 5X",
"5X5X5X5X5X5X5X5X5X5X5X5XP l V C V V U U U v V U E W E U V V N d.W.t.5 B C B V v v v c l x A 4 d.t.5X",
"5X5X5X5X5X5X5X5X5X5X5X5X5XH V V V V v U U v V U U E U V V v a W.Q.9.; V V B v v c c c c + g s.s.y.5X",
"5X5X5X5X5X5X5X5X5X5X5X5X5XB V B V V V C V v V V V U U V V z p W.r.a < B C v v v c c c c l > a.a.j.5X",
"5X5X5X5X5X5X5X5X5X5X5X5Xq.c v B v C v v V V V U v U V V B B - 9.y.< B B v c c x c c c c l # a t.5X5X",
"5X5X5X5X5X5X5X5X5X5X5X5X8.x c v c v v v v B C B V V V V V V V z b x v B c c c c c c c c z z O ` 5X5X",
"5X5X5X5X5X5X5X5X5X5X5X5X5X; & = $ z c v v v v B v V v V V V v v v v c c c c c c c l c c * $ A 5X5X5X",
"5X5X5X5X5X5X5X5X5X5X5X5X5X5Xq.5X; z c c c v c v V v v v v v v v c c c c c c c c c c c c = P 5X5X5X5X",
"5X5X5X5X5X5X5X5X5X5X5X5X5X5X5X5XP z c c c c c c c v z c v v c c c c c c c c c c $ c c k & 5X5X5X5X5X",
"5X5X5X5X5X5X5X5X5X5X5X5X5X5X5X5X5XO k c c $ k c c c c c c c c c l c c z c c c l O O c = 5X5X5X5X5X5X",
"5X5X5X5X5X5X5X5X5X5X5X5X5X5X5X5X5X5XD c x o O $ c l c c c c c c c c z z l c c * + 5XP 6 5X5X5X5X5X5X",
"5X5X5X5X5X5X5X5X5X5X5X5X5X5X5X5X5X5X5X_ X 3 3 X l l c c c c c l c l l * % * k o 3 5X5X5X5X5X5X5X5X5X",
"5X5X5X5X5X5X5X5X5X5X5X5X5X5X5X5X5X5X5Xt.j j a.g @ o = c $ % c c * # = # . X * > d.j r.g.J.K.5X5X5X5X",
"5X5X5X5X5X5X5X5X5X5X5X5X5X5X5X5X5XK.g.s.s.s.a.d.p 0.q.F 5 ` A x e.5Xv.4 j r.7 3 a.h.Q.h.g.h.f.5X5X5X",
"5X5X5X5X5X5X5X5X5X5X5X5X5X5X5X5Xj.|.|.}.}.Q.W.s.r.5X5X5X5X5X5X5X5X5X5X5Xy.a.h f s.|..X.X}.0.r.5X5X5X",
"5X5X5X5X5X5X5X5X5X5X5X5X5X5XK.[..XQ.h.|.XX.X|.s.f.5X5X5X5X5X5X5X5X5X5X5X5XJ.y.r.h.|..X.X.Xg.0.5X5X5X",
"5X5X5X5X5X5X5X5X5X5X5X5X5X5X[.XXg.h..X.XXXXX|.j.5X5X5X5X5X5X5X5X5X5X5X5X5X5X5X5XH.J.J.[. X5X5X5X5X5X",
"5X5X5X5X5X5X5X5X5X5X5X5X5X5XK.h.f |..X.X}.[. X5X5X5X5X5X5X5X5X5X5X5X5X5X5X5X5X5X5X5X5X5X5X5X5X5X5X5X",
"5X5X5X5X5X5X5X5X5X5X5X5X5X5X5Xf.4 g f y.H.5X5X5X5X5X5X5X5X5X5X5X5X5X5X5X5X5X5X5X5X5X5X5X5X5X5X5X5X5X"
};
