/* XPM */
static char *result[] = {
/* columns rows colors chars-per-pixel */
"50 50 180 2 ",
"   c #020101",
".  c #0A0202",
"X  c #050906",
"o  c #0B0905",
"O  c #050608",
"+  c #0B0609",
"@  c #060909",
"#  c #0B0A0A",
"$  c #110504",
"%  c #110906",
"&  c #100608",
"*  c #140D0B",
"=  c #1A0D0C",
"-  c #0C100F",
";  c #13110D",
":  c #1D140F",
">  c #1B0F11",
",  c #0F1314",
"<  c #1B1311",
"1  c #1A1816",
"2  c #201513",
"3  c #221816",
"4  c #241C1B",
"5  c #2A1D1D",
"6  c #29211E",
"7  c #30221F",
"8  c #281F20",
"9  c #2C2222",
"0  c #2B2826",
"q  c #332525",
"w  c #302728",
"e  c #352D2A",
"r  c #3E2F32",
"t  c #3D3533",
"y  c #3D3938",
"u  c #413433",
"i  c #423837",
"p  c #413738",
"a  c #453B3C",
"s  c #4A3D3D",
"d  c #49403E",
"f  c #43403B",
"g  c #4D4342",
"h  c #534947",
"j  c #524549",
"k  c #564B4A",
"l  c #5B4E4E",
"z  c #5C514F",
"x  c #5F4F52",
"c  c #5E5253",
"v  c #66534F",
"b  c #624F53",
"n  c #645555",
"m  c #695A57",
"M  c #66575B",
"N  c #675D5E",
"B  c #6A5C5C",
"V  c #6C615E",
"C  c #685D63",
"Z  c #6D6462",
"A  c #6C6668",
"S  c #736665",
"D  c #756C6B",
"F  c #7B6D6D",
"G  c #79706B",
"H  c #7E7676",
"J  c #827575",
"K  c #857A7A",
"L  c #897E7D",
"P  c #847977",
"I  c #8A807F",
"U  c #91827F",
"Y  c #8D8482",
"T  c #938484",
"R  c #998685",
"E  c #968A8A",
"W  c #9C8B8B",
"Q  c #938886",
"!  c #9F908D",
"~  c #9E9392",
"^  c #A48E8E",
"/  c #A5918F",
"(  c #A98F90",
")  c #A49392",
"_  c #AA9594",
"`  c #A59997",
"'  c #AC9995",
"]  c #A69A99",
"[  c #AD9A99",
"{  c #B19D96",
"}  c #B19C9A",
"|  c #B89E9D",
" . c #AEA09E",
".. c #B5A19E",
"X. c #B9A59E",
"o. c #AE9FA2",
"O. c #B39FA0",
"+. c #ADA1A2",
"@. c #B4A4A3",
"#. c #BBA5A3",
"$. c #BDAAA4",
"%. c #B4A9AA",
"&. c #BCABAA",
"*. c #B4ABA4",
"=. c #BEB0AD",
"-. c #BDB3B1",
";. c #C2A7A6",
":. c #C3AAA6",
">. c #C3ACAB",
",. c #CBAEAD",
"<. c #D1AEAC",
"1. c #C4B1AD",
"2. c #CBB2AD",
"3. c #C4B4B3",
"4. c #CAB6B2",
"5. c #C6BAB5",
"6. c #CAB8B4",
"7. c #CCB6B9",
"8. c #C6BBBA",
"9. c #CBBBBB",
"0. c #D3B6B4",
"q. c #DAB7B5",
"w. c #D4B9B6",
"e. c #DCB9B7",
"r. c #D3BDBA",
"t. c #DCBCBA",
"y. c #E0BEBF",
"u. c #CCC1BE",
"i. c #D3C1BD",
"p. c #DCC1BD",
"a. c #E0C1BE",
"s. c #D2BFC1",
"d. c #D9BFC3",
"f. c #CDC2C0",
"g. c #D4C3C3",
"h. c #DCC4C4",
"j. c #D6C8C7",
"k. c #DDCAC6",
"l. c #D7C7C8",
"z. c #DDC7CA",
"x. c #DDCAC9",
"c. c #D9D0CB",
"v. c #DACED0",
"b. c #DED0D0",
"n. c #E3C4C2",
"m. c #E5CBC6",
"M. c #E9CDC7",
"N. c #E3C6C9",
"B. c #E4CCCA",
"V. c #E9CDCA",
"C. c #EAC7C5",
"Z. c #E5D2CE",
"A. c #ECD2CD",
"S. c #F0D4CF",
"D. c #E5CFD2",
"F. c #EFCFD0",
"G. c #E5D3D3",
"H. c #ECD4D2",
"J. c #E6D8D5",
"K. c #EDDAD5",
"L. c #E5D5D8",
"P. c #E5D9D8",
"I. c #ECDBDA",
"U. c #E9D4D9",
"Y. c #F3D5D3",
"T. c #F8D6D5",
"R. c #F5D9D5",
"E. c #F8D9D7",
"W. c #F5D7D9",
"Q. c #F4DCDC",
"!. c #FADCDB",
"~. c #F6E3DD",
"^. c #FCE0DF",
"/. c #F4E2E2",
"(. c #FAE4E3",
"). c #F7E7E8",
"_. c #FBE7E8",
"`. c #FCECEB",
"'. c #FFF2F2",
"]. c #FFFBF8",
/* pixels */
"                      .     O                                   O             O             .       ",
"                X                       . X     X .       . .         O O O                         ",
"                            O   @ O                                       O                         ",
"                                      O X X         X O X     X   O                                 ",
"                                # @         X . o       @ o         +                               ",
"                                                    X                 .                             ",
"                  X                 . % 6 h D I E ! E D k e >   %     . +                           ",
"                                . q S #.I.`.'.`.`.'.'.`.'._.9.T w %           .                     ",
"                @       .   . 3 ^ x.'.`.K.Q.^.~.Q.I.I.Q.Q./.)._.I.-.g . . @     X     . @   @       ",
"                    X ;   . V Z.(.(.!.R.!.Q.W.S.!.!.!.!.!.!.!.~.`.I.I.] > . .     @ #     O   ,     ",
".                 X   o < ] ].I.(.T.F.T.!.!.!.^.!.E.!.E.!.E.W.W.Q./.(.).z.t . $ %   X     X   @     ",
".                 X o % k.`.B.~.M.T.!.R.T.T.T.Y.W.W.T.T.T.E.T.R.!.B.G._.~.P.l . .     #     ,       ",
"                    * J.Q.k.W.W.W.R.T.S.S.Y.Y.S.Y.Y.Y.Y.Y.T.T.Y.Y.W.!.z.G././.l . = .       @       ",
"    O             % =.K.U.(.V.T.Y.M.M.Y.~.S.S.E.Y.Y.S.A.S.A.A.A.F.Y.H.Y.F._.l.).a .       O   @     ",
"    O           . I `.k.H.!.y.!.H.A.Y.R.K.m.m.A.M.A.S.K.K.A.A.V.Y.T.Y.Y.!.x.I.U.3.4   # O     O     ",
"                d I.K.Z.Y.V.E.V.H.R.A.k.Z.~.~.K.k.k.Z.K.R.K.H.A.V.W.A.N.F.Q.V.D.).L $   O   O       ",
"      @     .   u.x.H.A.V.S.S.V.N.W.z.).G.~ Z 4 : ; e d Q k./.k.a.S.A.A.a.K.i.K.A.J.t X +   +       ",
"    X     . $ M B.B.Z.V.C.M.V.M.Y.7._.+.t .   X X     o   5 E I.~.i.M.S.S.R.M.Z.a.~.U % .           ",
"    . X   . . ] Q.H.B.V.M.M.V.V.h.`.W = . $   o     . . . . . m Z.S.n.m.a.a.S.M.h.K.B.q + .   .     ",
"X       . . q U.x.h.n.N.V.N.n.N.I.' . . $ . 7 G ~ ` Y h = . = . v H.h.A.a.A.M.M.p.k.I.m . O . .     ",
"    X   . . B I.x.h.N.N.V.N.N.D.7.$   = $ U I.Z.(.g.Z.I.@.7 . $ $ ^ B.N.h.h.N.N.A.x.I.@..   .       ",
"    . $ . . ( Q.h.h.d.d.d.d.d.D.Z * . . ! A.6.B.9.B.K.2.H.x.: . . 5 l.g.h.k.B.N.i.9.g.b.>   . @     ",
"  X     . 1 %.L.U.U.U.D.D.G.G.G.;   X v Z.A.a.e.a.S.w.h.i.Z.` . +   %.P.G.G.G.h.Q.I.b.P.i .         ",
"      % . + c x x b b b n M x g o   . *.c.r.p.a.a.a.0.m.i.u.G.e O   0 A h k n n l l c V 4   +       ",
"X     X   X . . . . . . .   .   X X 0 u.i.p.a.y.C.q.t.t.i.9.J.V           . .   .   . o   -         ",
"    X @   X   . . . . . . $ . .     f c.p.w.q.a.e.e.n.t.G.g.f.H   O @   +   . . . X o               ",
"X         #   o   . . X .   .     @ t 5.i.i.q.e.<.n.a.:.3.f.c.D   X   @ +       . o     -           ",
"        o   < * 3 3 2 1 2 : : > @   ; =.1.i.A.,.q.q.,.h.s.-.v.g #   @ 9   3 = 4 : < ; 4 -           ",
"X       . % +.u.3.=.3.1.1.=.=.&.;     H g.r.:.0.0.,.,.3.3.s.o.+     P 8.&.f.=.&.3.3.=.-.y   + .     ",
"    . + o   ` 9.1.4.6.4.4.4.6.4.f o . * @.N.$.r.4.,.d.&.s.-.j O . 2 %.9.8.3.s.r.6.3.u.u.5           ",
"@       . . F 9.1.1.2.2.2.2.2.4.E . . . u R x.$.4.#.1.s.3.M O & . n 3.3.3.;.,.&.4.>.-.! = . .       ",
"    + .   . a 3.>.:.:.:.:.:.:.>.8.C . $ $ = V ` | s.) J r . + . q &.,.,.X.7.,.#.>.3.9.F .   .       ",
"    @ O   . & ` 3.&.&.,.;.@.;.>.s.o.j . . +   . * 5 % . % . . 5 X.$.X.:.:.:.$.$.1.%.3.w . .         ",
"          . . N 3.O.>.#.| ,.;.O.[ d.O.b >   . <         .   i [ $.$.$.X.X.X.*.>...&.~ $ #   @       ",
"  O       .   4 o.#.@.O.;.#.| ;.O.O.&.1.W g %     * % $ t K  ...X.X.X.X...X.@.$.@.%.d     X         ",
"  O       . .   c -.[ ' >.} } ;.>.[ _ O.&.&.@.W P Z G ) &.%.@.>.X.{ ..X.X.....' 9.I .     .   .     ",
"  O     O   . . $ L &._ _ @.O._ ( _ ;.#.' [ @.) ..&.&.@.) } O./ X.' ' .. .' .. .` e     ,           ",
"          .   . . 8 ` %.( #._ } ;.( ( O.[ _ [ } ..' _ ' ' ..@.| X./ { { / ' *.*.g . .   .           ",
"    @   O     + . . s W o.[ / O.( | O._ ^ } | ^ ^ _ [ | [ ( ( [ / / { ' /  .) V . .   o   #   X     ",
"    @   +     .   &   g ] ~ ` ) _ ( ( } [ ^ ( [ } _ ^ ( } [ ( _ / / { / /  .V o     X   @     X     ",
"                  .   . a T +.` / ) _ ) ^ ^ ^ ^ ( _ _ _ ( ( ' _ [ W W  .' l %                       ",
"                    .     5 Z ] ` W R ^ ^ _ _ ) W ^ ^ ^ ^ ^ W R T  .@.K t .                         ",
"                    + #   . > a T ! ` ` W T T T W ^ W W W ) ) ~ ` I l 3   . #                       ",
"                +       O       ; t S E ` ) / / W W W W W W T L h 4 .     # o           O           ",
"  X                       @ +       X < t c D J K K K F N g w <       +               O   O   O     ",
"                      @ O               . . .   . . . . .       # +       O @ X               .     ",
"  X             -             O     X X       . + + .         X     +             O       . O .     ",
"                    O O O   O                       .           X       O   O @           O         ",
"                                                                                                    ",
"                                                                                                    "
};
