/* XPM */
static char *result[] = {
/* columns rows colors chars-per-pixel */
"50 50 209 2 ",
"   c #130F1D",
".  c #0B0E15",
"X  c #0E1525",
"o  c #131525",
"O  c #1B1625",
"+  c #141B2A",
"@  c #171B29",
"#  c #161B32",
"$  c #1B1E3B",
"%  c #1D1D35",
"&  c #281F34",
"*  c #1C2134",
"=  c #1C223A",
"-  c #21212B",
";  c #2D2B2B",
":  c gray15",
">  c #292A3A",
",  c #2B323E",
"<  c #38383A",
"1  c #201F43",
"2  c #1E2A4B",
"3  c #1F355C",
"4  c #222344",
"5  c #232B41",
"6  c #25244C",
"7  c #28274E",
"8  c #222A4D",
"9  c #2A2B4D",
"0  c #292A45",
"q  c #28324C",
"w  c #333A47",
"e  c #393947",
"r  c #2A2751",
"t  c #2D2B55",
"y  c #2B2C58",
"u  c #322E5B",
"i  c #312E55",
"p  c #2D3354",
"a  c #2B335B",
"s  c #273759",
"d  c #35345A",
"f  c #383759",
"g  c #383A59",
"h  c #322A4C",
"j  c #2D3A65",
"k  c #2F3969",
"l  c #363161",
"z  c #393564",
"x  c #3F3A65",
"c  c #3C376A",
"v  c #3D3A6C",
"b  c #333C64",
"n  c #403F47",
"m  c #423C6E",
"M  c #403F61",
"N  c #433C73",
"B  c #2F405C",
"V  c #3A4158",
"C  c #3D4B6A",
"Z  c #394267",
"A  c #3D4874",
"S  c #35477C",
"D  c #3B4574",
"F  c #484C5D",
"G  c #525050",
"H  c #434363",
"J  c #4A4864",
"K  c #43426B",
"L  c #484A69",
"P  c #574D60",
"I  c #4C546E",
"U  c #435069",
"Y  c #58596F",
"T  c #494375",
"R  c #474079",
"E  c #4A447D",
"W  c #404A79",
"Q  c #514C7A",
"!  c #48547A",
"~  c #5B5A73",
"^  c #545778",
"/  c #5E606D",
"(  c #61636B",
")  c #65637B",
"_  c #676A73",
"`  c #6F727E",
"'  c #76757D",
"]  c #4E4682",
"[  c #554E8C",
"{  c #534F81",
"}  c #40568E",
"|  c #56578A",
" . c #574E90",
".. c #405692",
"X. c #5C5297",
"o. c #5F559C",
"O. c #60569D",
"+. c #615B9A",
"@. c #5A6988",
"#. c #576795",
"$. c #6A6887",
"%. c #787C8E",
"&. c #6B639B",
"*. c #686597",
"=. c #6B7695",
"-. c #7B7B96",
";. c #697384",
":. c #6459A2",
">. c #695EA6",
",. c #6257A3",
"<. c #4A66A7",
"1. c #566FB5",
"2. c #5A77B7",
"3. c #6B6FA5",
"4. c #6B64A7",
"5. c #7067A4",
"6. c #756DA3",
"7. c #6871AB",
"8. c #7773A6",
"9. c #796FB0",
"0. c #6779B6",
"q. c #7E74B2",
"w. c #8379B5",
"e. c #7F838B",
"r. c #768098",
"t. c #7886A7",
"y. c #6C81B3",
"u. c #6E86AA",
"i. c #6C85C1",
"p. c #798CC4",
"a. c #7D92C5",
"s. c #7D94C8",
"d. c #8C8C8F",
"f. c #80828A",
"g. c #878899",
"h. c #91919E",
"j. c #898EA4",
"k. c #8390AF",
"l. c #9697A3",
"z. c #8989B0",
"x. c #8C9BBB",
"c. c #8293B8",
"v. c #A78BBA",
"b. c #BB8CBC",
"n. c #B987B6",
"m. c #AE98BE",
"M. c #BE92BD",
"N. c #B297BF",
"B. c #C18EBE",
"V. c #8D9DC3",
"C. c #849BCB",
"Z. c #8795C4",
"A. c #9A93C5",
"S. c #AE9DC9",
"D. c #A498C4",
"F. c #BD9EC9",
"G. c #BB96C3",
"H. c #8BA0CD",
"J. c #97A5C9",
"K. c #8EA4D2",
"L. c #91A5D2",
"P. c #95ABD6",
"I. c #9AACD4",
"U. c #9CA4D2",
"Y. c #9CB1D8",
"T. c #A5A5C7",
"R. c #B4A5CD",
"E. c #BDA3CD",
"W. c #BEA5C9",
"Q. c #A2B2CF",
"!. c #BEB5CF",
"~. c #A7ABD4",
"^. c #BCACD3",
"/. c #B8ABD0",
"(. c #ACB7D9",
"). c #A5B9DD",
"_. c #ACBADC",
"`. c #A4B5DB",
"'. c #BBB3D6",
"]. c #B7BDDE",
"[. c #BAB7DA",
"{. c #A9BDE1",
"}. c #B6BFE1",
"|. c #C09AC6",
" X c #C198C5",
".X c #C9A8CB",
"XX c #D1ADD1",
"oX c #C7BAD9",
"OX c #D0A5CA",
"+X c #E0BAD8",
"@X c #B4C4E4",
"#X c #B9C6E4",
"$X c #B7C9E7",
"%X c #BCCDE7",
"&X c #BECDE9",
"*X c #ADC4E4",
"=X c #C3C2DB",
"-X c #D0C3DE",
";X c #CAC5E1",
":X c #C7CDE6",
">X c #D3CFE7",
",X c #C4D2EA",
"<X c #CBD4EA",
"1X c #D4D4EA",
"2X c #D2DAED",
"3X c #DBDBEE",
"4X c #D8D1E8",
"5X c #DBDFF0",
"6X c None",
/* pixels */
"6X6X6X6X6X6X6X6X6X6X6X6X6X6X6X6X6X6X6X6X6X6X6X6X6X6X6X6X6X6X6X6X6X6X6X6X6X6X6X6X6X6X6X6X6X6X6X6X6X6X",
"6X6X6X6X6X6X6X6X6X6X6X6X6X6X6X6X6X6X6X6X6X6X6X6X+X6X6X6X6X6X6X6X6X6X6X6X6X6X6X6X6X6X6X6X6X6X6X6X6X6X",
"6X6X6X6X6X6X6X6X6X6X6X6X6X6X6X6X6X6X6X6X6X6X6X6XXX.X6X6X6X6X6X6X6X6X6X6X6X6X6X6X6X6X6X6X6X6X6X6X6X6X",
"6X6X6X6X6X6X6X6X6X6X6X6X6X6X6X6X6X6X6X6X6X6X6X6X-XR.6X6X6X6X6X6X6X6X6X6X6X6X6X6X6X6X6X6X6X6X6X6X6X6X",
"6X6X6X6X6X6X6X6X6X6X6X6X6X6X6X6X6X6X6X6X6X6X6X6XoXA.A.J.I.6X6X6X6X6X6X6X6X6X6X6X6X6X6X6X6X6X6X6X6X6X",
"6X6X6X6X6X6X6X6X6X6X6X6X6X6X6X6X6X6X6X6X6X6X6X6X~.~.U.p.1.0.6X6X6X6X6X6X6X6X6X6X6X6X6X6X6X6X6X6X6X6X",
"6X6X6X6X6X6X6X6X6X6X6X6X6X6X6X6X6X6X6X6X6X6X6X6X6X#X@X).i.1.p.6X6X6X6X6X6X6X6X6X6X6X6X6X6X6X6X6X6X6X",
"6X6X6X6X6X6X6X6X6X6X6X6X6X6X6X6X6X6X6X6X6X6XT.6X6X6X,X*X*Xi.1.6X6X6X6X6X6X6X6X6X6X6X6X6X6X6X6X6X6X6X",
"6X6X6X6X6X6X6X6X6X6X6X6X6X6X6X6X6X6X6X6Xw.3.0.{ r.Q.s.Y.L.2.C.6X6X6X6X6X6X6X6X6X6X6X6X6X6X6X6X6X6X6X",
"6X6X6X6X6X6X6X6X6X6X6X6X6X6X6X6X6X6X6X6Xg O.m O K 7.0.a.s.H.6X6X6X6X6X6X6X6X6X6X6X6X6X6X6X6X6X6X6X6X",
"6X6X6X6X6X6X6X6X6X6X6X6X6X6X6X6X6X6X6X; h m O E 4.0.#.y.6X6X6X6X6X6X6X6X6X6X6X6X6X6X6X6X6X6X6X6X6X6X",
"6X6X6X6X6X6X6X6X6X6X6X6X6X6X6X6X6X6Xw.O > - m &.o.A s C 6X6X6X6X6X6X6X6X6X6X6X6X6X6X6X6X6X6X6X6X6X6X",
"6X6X6X6X6X6X6X6X6X6X6X6X6X6X6X6X6X6Xd.O   > h $.0 2 U ;.6X6X6X6X6X6X6X6X6X6X6X6X6X6X6X6X6X6X6X6X6X6X",
"6X6X6X6X6X6X6X6X6X6X6X6X6X6X6X6X6X6X6Xe o O > P B <.H.6X6X6X6X6X6X6X6X6X6X6X6X6X6X6X6X6X6X6X6X6X6X6X",
"6X6X6X6X6X6X6X6X6X6X6X6X6X6X6X6X6X6X6X6X~ - . A } *.l.r.6X6X6X6X6X6X6X6X6X6X6X6X6X6X6X6X6X6X6X6X6X6X",
"6X6X6X6X6X6X6X6X6X6X6X6X6X6X6X6X6X6X6X6X6X6X/ s 5 H d T &.g.6X6X6X6X6X6X6X6X6X6X6X6X6X6X6X6X6X6X6X6X",
"6X6X6X6X6X6X6X6X6X6X6X6X6X6X6X6X6X6X6X6X6X6XF @ 6 y u l l y 6X6X6X6X6X6X6X6X6X6X6X6X6X6X6X6X6X6X6X6X",
"6X6X6X6X6X6X6X6X6X6X6X6X6X6X6X6X6X6X6X6X` 4 r r j A v N 4 $ / 6X6X6X6X6X6X6X6X6X6X6X6X6X6X6X6X6X6X6X",
"6X6X6X6X6X6X6X6X6X6X6X6X6X6X6X6X6X6X6X6X> k N y q j * > 6 c _ 6X6X6X6X6X6X6X6X6X6X6X6X6X6X6X6X6X6X6X",
"6X6X6X6X6X6X6X6X6X6X6X6X6X6X6X6X6X6X6X6X< o X # 2 4 _ V M D g 6X6X6X6X6X6X6X6X6X6X6X6X6X6X6X6X6X6X6X",
"6X6X6X6X6X6X6X6X6X6X6X6X6X6X6XL.s.6X6Xh.e.+ $ a L 6X6Xg.6X^ E [ %.6X`.6X6X6X6X6X6X6X6X6X6X6X6X6X6X6X",
"6X6X6X6X6X6X6X6X6X6X6X6X6X6XL.Y.C.$.T d s 8 D [ Q 6X6X6X%.4 t N d I H.*X6X6X6X6X6X6X6X6X6X6X6X6X6X6X",
"6X6X6X6X6X6X6X6X6X6X6X6X6X).K.{.c.9 t t $ s [ v D j.6Xi.t.H 4 6 7 p J._.P.6X6X6X6X6X6X6X6X6X6X6X6X6X",
"6X6X6X6X6X6X6X6X6X6X6X6X6X6XI.L.=.6 6 # X x o.k > / 6XC.Y.V.t.M 4 4 I L.2X6X6X6X6X6X6X6X6X6X6X6X6X6X",
"6X6X6X6X6X6X6X6X6X6X6X6X6X(.I.k.4 $ # # 4 [ ] - : < 6XL.).I.Y.=.T v 2 t.#X6X6X6X6X6X6X6X6X6X6X6X6X6X",
"6X6X6X6X6X6X6X6X6X6X6X6X6XK.k.q X = U U y N y @ ; ; d.6X6X6X6XC.V.8.c H Q.6X6X6X6X6X6X6X6X6X6X6X6X6X",
"6X6X6X6X6X6X6X6X6X6X6X6XK.V.0 + I c.x.t 6 7 1 - ; ; G 6X6X6X6X6XI.Z.3.N -.%X6X6X6X6X6X6X6X6X6X6X6X6X",
"6X6X6X6X6X6X6X6X6X6X6XK.{.x.! t.6X6Xl.% o $ 2 G , F < 6X6X6X6X6X6X6XV.V.J.,X,X6X6X6X6X6X6X6X6X6X6X6X",
"6X6X6X6X6X6X6X6X6X,X{.$X@X).J.6X6X6XF + @ _ F ' B S S %.6X6X6X6X6X6X6XL.$X2X&X2X6X6X6X6X6X6X6X6X6X6X",
"6X6X6X6X6X6X6X:X#X,X,X#X).].z.6.T.6XC q 5 6X6X6X! v *.| 6X6X6X6X6X6X6X6XL.%X5X<X<X6X6X6X6X6X6X6X6X6X",
"6X6X6X6X6X6X(.<X5X3X#X{._.6X8.,.,.{ j j B 6X6X6X=.y 5.w.z.6X6X6X6X6X6X6X`.#X5X5X<X].6X6X6X6X6X6X6X6X",
"6X6X6X6X6XD.'.>X3X:X}.I.6X6X5.,.,.c 2 j K 6X6X6X6X9  .w.w.w.&.~ 6X6X6X6X6X@X5X5X3X1X~.6X6X6X6X6X6X6X",
"6X6X6X6XD.R.'.>X1X].~.6X6X6X&.:. .y 1 N ] $.6X6X6X7 R 4.q.9.:.N J 6X6X6X6X).1X3X4X;X[.S.6X6X6X6X6X6X",
"6X6X6XS.F.E.oX4X;X=X6X6X6X6X&.:.N 6 r N c 1 ~ 6X-.6 l O.>.>.,.N 1 l.6X6X6X6X].3X;X'.'.R.[.6X6X6X6X6X",
"6X6X.XM..XF..X=X6X6X6X6X6X6X4.X.u 6 6 l r 6 ) 6X$.6 7 E ,.,.X.u t l.6X6X6X6X:X[.oX^.^.E.S.6X6X6X6X6X",
"6X6Xb.G.G.N.6X6X6X6X6X6X6X6X6.E r r 6 r 6 r 6X6Xj.7 7 u ,.,.] r r 6X6X6X6X6X6X=XS.E.E.E.F.R.6X6X6X6X",
"6XB.b.B.6X6X6X6X6X6X6X6X6X6Xz.N 6 7 6 6 7 ) 6X6X6XL 6 6 ] O.u 1 f 6X6X6X6X6X6X6X/.v.F..X|.F.oX6X6X6X",
"6XM.6X6X6X6X6X6X6X6X6X6X6X6X6XN 6 6 7 6 H 6X6X6X6X6Xf 7 u m 7 r Y 6X6X6X6X6X6X6X6X!.v.G.|.|.M.6X6X6X",
"6X6X6X6X6X6X6X6X6X6X6X6X6X6X6XT 6 6 7 g 6X6X6X6X6X6X6Xf 7 1 r 1 ~ 6X6X6X6X6X6X6X6X6X6Xv.b.G.G.OX6X6X",
"6X6X6X6X6X6X6X6X6X6X6X6X6X6X6XM 6 7 6 ~ 6X6X6X6X6X6X6X6X9 1 7 7 6 6X6X6X6X6X6X6X6X6X6X6XW.n.B.B.6X6X",
"6X6X6X6X6X6X6X6X6X6X6X6X6X6X6X0 7 2 $ Y 6X6X6X6X6X6X6X6Xw # 6 4 # d.6X6X6X6X6X6X6X6X6X6X6X6Xb.n.OX6X",
"6X6X6X6X6X6X6X6X6X6X6X6X6X6X6Xw 7 # w 6X6X6X6X6X6X6X6X6X6X> + + + 6X6X6X6X6X6X6X6X6X6X6X6X6X6X6Xb.6X",
"6X6X6X6X6X6X6X6X6X6X6X6X6X6X6Xf 6 # 6X6X6X6X6X6X6X6X6X6X6X6X- X = 6X6X6X6X6X6X6X6X6X6X6X6X6X6X6X6X6X",
"6X6X6X6X6X6X6X6X6X6X6X6X6X6X6Xb # , 6X6X6X6X6X6X6X6X6X6X6X6X/ # 7 $.6X6X6X6X6X6X6X6X6X6X6X6X6X6X6X6X",
"6X6X6X6X6X6X6X6X6X6X6X6X6X6X6XZ X / 6X6X6X6X6X6X6X6X6X6X6X6X6Xa 7 ~ 6X6X6X6X6X6X6X6X6X6X6X6X6X6X6X6X",
"6X6X6X6X6X6X6X6X6X6X6X6X6X6X6Xs + 6X6X6X6X6X6X6X6X6X6X6X6X6X6X! k J 6X6X6X6X6X6X6X6X6X6X6X6X6X6X6X6X",
"6X6X6X6X6X6X6X6X6X6X6X6X6X6X=.3 w 6X6X6X6X6X6X6X6X6X6X6X6X6X6X@...H 6X6X6X6X6X6X6X6X6X6X6X6X6X6X6X6X",
"6X6X6X6X6X6X6X6X6X6X6X6X6X6X@.@.6X6X6X6X6X6X6X6X6X6X6X6X6X6X6Xk.<.! 6X6X6X6X6X6X6X6X6X6X6X6X6X6X6X6X",
"6X6X6X6X6X6X6X6X6X6X6X6X6X6X6X6X6X6X6X6X6X6X6X6X6X6X6X6X6X6X6X6X2.u.6X6X6X6X6X6X6X6X6X6X6X6X6X6X6X6X",
"6X6X6X6X6X6X6X6X6X6X6X6X6X6X6X6X6X6X6X6X6X6X6X6X6X6X6X6X6X6X6X6X6X6X6X6X6X6X6X6X6X6X6X6X6X6X6X6X6X6X"
};
